<svg width="24" height="24" viewBox="0 0 24 24" fill="none" xmlns="http://www.w3.org/2000/svg">
<g clip-path="url(#clip0_8_10949)">
<path d="M1.72266 13.2825C0.7125 13.6992 0 14.6929 0 15.8503V16.7587C0 17.9161 0.7125 18.9098 1.72266 19.3265C1.67063 19.0856 1.64344 18.8353 1.64344 18.5784V14.0301C1.64344 13.7737 1.67063 13.5234 1.72266 13.2825Z" fill="#007AFF"/>
<path d="M22.2488 13.2863C22.3003 13.5263 22.3271 13.7752 22.3271 14.0302V18.5784C22.3271 18.8339 22.2999 19.0828 22.2488 19.3228C23.2542 18.9042 23.963 17.9128 23.963 16.7588V15.8503C23.963 14.6963 23.2542 13.7048 22.2488 13.2863Z" fill="#007AFF"/>
<path d="M23.2978 0H13.4227C12.9103 0 12.4228 0.107813 11.9817 0.302344C11.3067 0.599063 10.7405 1.09781 10.3598 1.72078C6.29671 1.91203 3.04968 5.27156 3.04968 9.37313V18.5786C3.04968 19.596 3.7551 20.4435 4.68046 20.6145V21.1336C4.68046 22.4105 5.72109 23.4492 7.00078 23.4492H7.35093C7.20131 22.9675 7.22625 22.6462 7.22625 22.0481H7.00078C6.49546 22.0481 6.08437 21.6375 6.08437 21.1336V20.6466H6.60131C7.3485 20.6466 7.95646 20.0099 7.95646 19.2275V13.382C7.95646 12.5991 7.34845 11.9624 6.60131 11.9624H5.02443C4.82601 11.9624 4.63443 11.9935 4.45359 12.0509V9.37313C4.45359 6.21422 6.81046 3.59438 9.86156 3.17297C9.82879 3.45413 9.83859 2.96048 9.83859 10.5755C9.83859 11.1227 10.4415 11.4601 10.9106 11.1713C12.6167 10.1155 12.5816 10.095 12.8602 10.095H19.5169V12.0515C19.3351 11.9938 19.1426 11.9624 18.9431 11.9624H17.3638C16.6155 11.9624 16.0066 12.5991 16.0066 13.382V19.2275C16.0066 20.0099 16.6155 20.6466 17.3638 20.6466H18.9431C20.0336 20.6466 20.9209 19.7189 20.9209 18.5786C20.9209 16.569 20.9208 11.8 20.9208 10.0594C22.6589 9.81422 24 8.31938 24 6.51797V0.700781C24 0.314063 23.6855 0 23.2978 0ZM19.8047 2.94516C20.1928 2.94516 20.5069 3.25875 20.5069 3.64594C20.5069 4.03266 20.1928 4.34672 19.8047 4.34672C19.5925 4.34672 14.2872 4.34672 14.0334 4.34672C13.6458 4.34672 13.3312 4.03266 13.3312 3.64594C13.3312 3.26353 13.6415 2.94516 14.0334 2.94516H19.8047ZM14.0334 7.14938C13.6458 7.14938 13.3312 6.83531 13.3312 6.44859C13.3312 6.06141 13.6458 5.74781 14.0334 5.74781H19.8047C20.1894 5.74781 20.5069 6.05845 20.5069 6.44859C20.5069 6.83288 20.1946 7.14938 19.8047 7.14938C19.6304 7.14938 14.241 7.14938 14.0334 7.14938Z" fill="#007AFF"/>
<path d="M12.6311 20.6465H10.0116C9.24962 20.6465 8.63232 21.2627 8.63232 22.0231V22.6234C8.63232 23.3838 9.24967 23.9999 10.0116 23.9999H12.6311C13.3931 23.9999 14.0104 23.3838 14.0104 22.6234V22.0231C14.0104 21.2627 13.3931 20.6465 12.6311 20.6465Z" fill="#007AFF"/>
</g>
<defs>
<clipPath id="clip0_8_10949">
<rect width="24" height="24" fill="white"/>
</clipPath>
</defs>
</svg>
