<?xml version="1.0" encoding="UTF-8"?>
<svg id="Layer_1" data-name="Layer 1" xmlns="http://www.w3.org/2000/svg" xmlns:xlink="http://www.w3.org/1999/xlink" viewBox="0 0 500 500">
  <defs>
    <style>
      .cls-1 {
        fill: url(#linear-gradient-3);
      }

      .cls-1, .cls-2 {
        mix-blend-mode: multiply;
      }

      .cls-3 {
        mask: url(#mask-2);
      }

      .cls-4 {
        fill: url(#linear-gradient-6);
      }

      .cls-5 {
        fill: url(#linear-gradient-2);
      }

      .cls-5, .cls-6, .cls-7, .cls-8, .cls-9 {
        fill-rule: evenodd;
      }

      .cls-6 {
        fill: url(#linear-gradient);
      }

      .cls-10 {
        mask: url(#mask-3);
      }

      .cls-2 {
        fill: url(#linear-gradient-5);
      }

      .cls-11 {
        mask: url(#mask-5);
      }

      .cls-12 {
        mask: url(#mask-4);
      }

      .cls-7 {
        fill: #5efaf7;
      }

      .cls-13 {
        filter: url(#luminosity-noclip);
      }

      .cls-14 {
        mask: url(#mask-1);
      }

      .cls-15 {
        mask: url(#mask);
      }

      .cls-8 {
        fill: #003780;
      }

      .cls-9 {
        fill: #688e99;
      }

      .cls-16 {
        fill: url(#linear-gradient-4);
      }

      .cls-17 {
        filter: url(#luminosity-noclip-3);
      }
    </style>
    <linearGradient id="linear-gradient" x1="497.8" y1="36.2" x2="497.8" y2="-269.9" gradientTransform="translate(-194.1 252.6) scale(.9 -.9)" gradientUnits="userSpaceOnUse">
      <stop offset="0" stop-color="#003780"/>
      <stop offset="1" stop-color="#23a4c9"/>
    </linearGradient>
    <linearGradient id="linear-gradient-2" x1="497.8" y1="-118.6" x2="497.8" y2="278.6" gradientTransform="translate(-194.1 252.6) scale(.9 -.9)" gradientUnits="userSpaceOnUse">
      <stop offset="0" stop-color="#0067b0"/>
      <stop offset="1" stop-color="#51f5ea"/>
    </linearGradient>
    <filter id="luminosity-noclip" x="80.5" y="92" width="336" height="144.8" color-interpolation-filters="sRGB" filterUnits="userSpaceOnUse">
      <feFlood flood-color="#fff" result="bg"/>
      <feBlend in="SourceGraphic" in2="bg"/>
    </filter>
    <filter id="luminosity-noclip-2" x="80.5" y="-8442" width="336" height="32766" color-interpolation-filters="sRGB" filterUnits="userSpaceOnUse">
      <feFlood flood-color="#fff" result="bg"/>
      <feBlend in="SourceGraphic" in2="bg"/>
    </filter>
    <mask id="mask-2" x="80.5" y="-8442" width="336" height="32766" maskUnits="userSpaceOnUse"/>
    <linearGradient id="linear-gradient-3" x1="497.8" y1="280.9" x2="497.8" y2="53.8" gradientTransform="translate(-194.1 252.6) scale(.9 -.9)" gradientUnits="userSpaceOnUse">
      <stop offset="0" stop-color="#fff"/>
      <stop offset="1" stop-color="#000"/>
    </linearGradient>
    <mask id="mask-1" x="80.5" y="92" width="336" height="144.8" maskUnits="userSpaceOnUse">
      <g class="cls-13">
        <g class="cls-3">
          <rect class="cls-1" x="80.5" y="92" width="336" height="144.8"/>
        </g>
      </g>
    </mask>
    <linearGradient id="linear-gradient-4" x1="497.8" y1="280.9" x2="497.8" y2="53.8" gradientTransform="translate(-194.1 252.6) scale(.9 -.9)" gradientUnits="userSpaceOnUse">
      <stop offset="0" stop-color="#fff"/>
      <stop offset="1" stop-color="#fff"/>
    </linearGradient>
    <mask id="mask" x="80.5" y="92" width="336" height="144.8" maskUnits="userSpaceOnUse">
      <g id="id44">
        <g class="cls-14">
          <rect class="cls-16" x="80.5" y="92" width="336" height="144.8"/>
        </g>
      </g>
    </mask>
    <filter id="luminosity-noclip-3" x="127.8" y="172.7" width="241.3" height="163.8" color-interpolation-filters="sRGB" filterUnits="userSpaceOnUse">
      <feFlood flood-color="#fff" result="bg"/>
      <feBlend in="SourceGraphic" in2="bg"/>
    </filter>
    <filter id="luminosity-noclip-4" x="127.8" y="-8442" width="241.3" height="32766" color-interpolation-filters="sRGB" filterUnits="userSpaceOnUse">
      <feFlood flood-color="#fff" result="bg"/>
      <feBlend in="SourceGraphic" in2="bg"/>
    </filter>
    <mask id="mask-5" x="127.8" y="-8442" width="241.3" height="32766" maskUnits="userSpaceOnUse"/>
    <linearGradient id="linear-gradient-5" x1="497.8" y1="292" x2="497.8" y2="-63.4" xlink:href="#linear-gradient-3"/>
    <mask id="mask-4" x="127.8" y="172.7" width="241.3" height="163.8" maskUnits="userSpaceOnUse">
      <g class="cls-17">
        <g class="cls-11">
          <rect class="cls-2" x="127.8" y="172.7" width="241.3" height="163.8"/>
        </g>
      </g>
    </mask>
    <linearGradient id="linear-gradient-6" x1="497.8" y1="292" x2="497.8" y2="-63.4" xlink:href="#linear-gradient-4"/>
    <mask id="mask-3" x="127.8" y="172.7" width="241.3" height="163.8" maskUnits="userSpaceOnUse">
      <g id="id46">
        <g class="cls-12">
          <rect class="cls-4" x="127.8" y="172.7" width="241.3" height="163.8"/>
        </g>
      </g>
    </mask>
  </defs>
  <g>
    <path class="cls-6" d="m406.4,123c-48.7-19.9-102-30.9-157.9-30.9s-109.2,11-157.9,30.9c-37.6,121,33.6,284.6,157.9,316,124.3-31.4,195.5-195.1,157.9-316Zm-122.8,148.2c10.9-9.7,17.7-23.8,17.7-39.5,0-29.2-23.6-52.8-52.8-52.8s-52.8,23.7-52.8,52.8,6.9,29.8,17.8,39.5l-8.8,81.1c14,3.8,28.7,5.8,43.9,5.8s29.9-2,43.9-5.8l-8.8-81.1Z"/>
    <path class="cls-5" d="m248.5,92.1c-55.9,0-109.2,11-157.9,30.9-22.5,72.4-6,160.2,37.6,225.7-5.7-107.5,90.2-162.9,97.4-164.6,6.9-3.3,14.7-5.2,22.9-5.2s16,1.9,22.9,5.2c7.2,1.8,103.2,57.1,97.4,164.6,43.6-65.5,60.1-153.3,37.5-225.7-48.7-19.9-102-30.9-157.9-30.9Z"/>
    <path class="cls-8" d="m248.5,358.1c-15.2,0-29.9-2-43.9-5.8,0,0-6.4,56.7,6.8,72.8,11.8,6,24.1,10.7,37.1,14,13-3.3,25.4-8,37.1-14,13.2-16.1,6.8-72.8,6.8-72.8-14,3.8-28.7,5.8-43.9,5.8h0Z"/>
    <g class="cls-15">
      <path class="cls-9" d="m84.3,236.8c36.6-132.9,291.8-132.9,328.4,0,6.4-38.6,4.8-78.1-6.3-113.8-48.7-19.9-102-30.9-157.9-30.9s-109.2,11-157.9,30.9c-11.1,35.7-12.7,75.1-6.3,113.8Z"/>
    </g>
    <g class="cls-10">
      <path class="cls-7" d="m271.4,178c-6.9-3.3-14.7-5.2-22.9-5.2s-16,1.9-22.9,5.2c-7.1,1.7-99.5,55-97.7,158.5,1.8-99.4,90.7-150.6,97.7-152.3,6.9-3.3,14.7-5.2,22.9-5.2s16,1.9,22.9,5.2c6.9,1.7,95.8,52.9,97.6,152.3,1.9-103.4-90.6-156.8-97.6-158.5Z"/>
    </g>
  </g>
  <image width="390" height="291" transform="translate(-355.2 144.6)" xlink:href="../Downloads/secure vpn-01 1.png"/>
</svg>